<svg width="60" height="60" viewBox="0 0 60 60" fill="none" xmlns="http://www.w3.org/2000/svg">
<g clip-path="url(#clip0)">
<path d="M45.5 12.5H32V18.5H43.5V41.5H32V47.5H45.5L49 44V16L45.5 12.5Z" fill="#A1B3D6" fill-opacity="0.4"/>
<path fill-rule="evenodd" clip-rule="evenodd" d="M31.5 22.5V5.5C31 4 29.2 1 26 1C22.861 1 21.5695 2.8475 20.6757 4.12612C20.4305 4.47683 20.2153 4.78475 20 5C19.2 5.8 19.3334 6 19.5 6C18.6667 6 16.5001 6.4 14.5001 8C12.0001 10 11.0001 12.5 11.0001 13C11.0001 13.1101 10.9758 13.3172 10.9433 13.5945C10.8283 14.5767 10.6102 16.4404 11.0001 18L11.0002 18.0005C11.5001 20 11.5001 20 11.0001 20.5C10.8524 20.6477 10.6175 20.7953 10.3212 20.9816C9.61405 21.4261 8.55702 22.0906 7.5 23.5C7.3588 23.6883 7.22204 23.8677 7.09012 24.0407C5.8206 25.706 5 26.7824 5 29.5C5 32.5 6.5 35.5 8 37C8.71296 37.713 9.53887 38.313 10.2093 38.8C10.9494 39.3377 11.5 39.7377 11.5 40C11.5 40.1667 11.3889 40.3889 11.2407 40.6852C10.9444 41.2778 10.5 42.1667 10.5 43.5C10.5 43.9274 10.4772 44.3091 10.4559 44.6647C10.3776 45.9731 10.3206 46.9274 11.5 48.5C13 50.5 14.5 52 16 53C16.859 53.5727 18.046 53.6534 18.9035 53.7118C19.5435 53.7553 20 53.7863 20 54C20 54.5 21.5 58 23 58.5C24.5 59 28 59 29 58C30 57 31.5 55.5 31.5 54.5V47L31.5 22.5ZM20 19C21.6569 19 23 17.6569 23 16C23 14.3431 21.6569 13 20 13C18.3431 13 17 14.3431 17 16C17 17.6569 18.3431 19 20 19ZM23 44C23 45.6569 21.6569 47 20 47C18.3431 47 17 45.6569 17 44C17 42.3431 18.3431 41 20 41C21.6569 41 23 42.3431 23 44ZM19 33C20.6569 33 22 31.6569 22 30C22 28.3431 20.6569 27 19 27C17.3431 27 16 28.3431 16 30C16 31.6569 17.3431 33 19 33Z" fill="#C4B3E8"/>
<path d="M54.7852 25.6395C55.4324 25.6395 55.957 25.1148 55.957 24.4676C55.957 23.8204 55.4324 23.2957 54.7852 23.2957H50.3459V20.1053H54.7852C55.4324 20.1053 55.957 19.5806 55.957 18.9334C55.957 18.2862 55.4324 17.7615 54.7852 17.7615H50.3459V15.8442C50.3459 15.5336 50.2226 15.2357 50.003 15.0159L46.6143 11.6244C46.3945 11.4045 46.0963 11.2808 45.7853 11.2808H43.8675V6.84551C43.8675 6.19828 43.3428 5.67363 42.6956 5.67363C42.0484 5.67363 41.5238 6.19828 41.5238 6.84551V11.2808H38.3327V6.84551C38.3327 6.19828 37.8081 5.67363 37.1609 5.67363C36.5136 5.67363 35.989 6.19828 35.989 6.84551V11.2808H32.8012V7.08129C32.8012 3.1766 29.6243 0 25.7191 0C22.5241 0 19.7474 2.15953 18.9005 5.15965C16.4651 5.40715 14.2086 6.48387 12.4673 8.24672C10.5009 10.2377 9.41801 12.8757 9.41801 15.6748C9.41801 17.0638 9.69223 18.4396 10.218 19.7149C8.57309 20.589 7.16168 21.8461 6.09176 23.3996C4.75148 25.3459 4.04297 27.6277 4.04297 29.9984C4.04297 34.3625 6.42914 38.277 10.2175 40.2851C9.69223 41.5581 9.41824 42.9327 9.41824 44.322C9.41824 47.121 10.5012 49.759 12.4676 51.75C14.2087 53.5129 16.4652 54.5896 18.9006 54.8371C19.7474 57.8392 22.5244 60 25.7194 60C29.6244 60 32.8015 56.8234 32.8015 52.9187V48.7159H35.9892V53.1545C35.9892 53.8017 36.5139 54.3264 37.1611 54.3264C37.8083 54.3264 38.333 53.8017 38.333 53.1545V48.7159H41.524V53.1545C41.524 53.8017 42.0486 54.3264 42.6959 54.3264C43.3431 54.3264 43.8677 53.8017 43.8677 53.1545V48.7159H45.7855C46.0963 48.7159 46.3943 48.5925 46.6141 48.3727L50.0029 44.9844C50.2226 44.7647 50.3461 44.4666 50.3461 44.1558V42.2351H54.7852C55.4324 42.2351 55.957 41.7104 55.957 41.0632C55.957 40.416 55.4324 39.8913 54.7852 39.8913H50.3459V36.7043H54.7852C55.4324 36.7043 55.957 36.1796 55.957 35.5324C55.957 34.8852 55.4324 34.3605 54.7852 34.3605H50.3459V31.1702H54.7852C55.4324 31.1702 55.957 30.6456 55.957 29.9984C55.957 29.3511 55.4324 28.8265 54.7852 28.8265H50.3459V25.6395H54.7852ZM25.7194 57.6562C23.7754 57.6562 22.0638 56.4608 21.3432 54.7345C22.198 54.5815 23.0314 54.3214 23.8329 53.9537C24.9976 53.419 26.0393 52.6871 26.9289 51.7785C27.3816 51.3159 27.3737 50.574 26.9113 50.1212C26.4488 49.6685 25.707 49.6764 25.254 50.1388C24.5655 50.8419 23.7585 51.4088 22.8553 51.8234C21.9009 52.2612 20.8894 52.5039 19.8484 52.5461C15.3868 52.4725 11.762 48.7895 11.762 44.3216C11.762 42.9098 12.1247 41.5188 12.8108 40.2987C12.9763 40.0046 13.0069 39.6536 12.8948 39.3354C12.7829 39.0171 12.5392 38.7626 12.2262 38.6368C8.67891 37.2122 6.38672 33.8213 6.38672 29.9984C6.38672 26.1744 8.67855 22.7849 12.2255 21.3633C12.9223 20.9865 13.1176 20.4327 12.8115 19.7021C12.1249 18.4785 11.762 17.0858 11.762 15.6749C11.762 11.207 15.3868 7.52402 19.8484 7.45043C20.8828 7.4925 21.8952 7.73543 22.8551 8.17301C23.7599 8.58832 24.5664 9.15563 25.2523 9.85922C25.482 10.0948 25.7866 10.2131 26.0916 10.2131C26.3864 10.2131 26.6816 10.1025 26.9094 9.88043C27.3729 9.42867 27.3823 8.68664 26.9305 8.22328C26.0427 7.31262 25.0004 6.57902 23.83 6.04172C23.0261 5.67527 22.1938 5.41582 21.3431 5.26289C22.0637 3.53801 23.7752 2.34375 25.7194 2.34375C28.3321 2.34375 30.4577 4.46906 30.4577 7.08129V21.4488H26.8095L23.7004 18.3401C24.0313 17.736 24.2078 17.0554 24.2078 16.3474C24.2078 15.237 23.7754 14.1929 22.9898 13.4077C21.3689 11.787 18.7313 11.7868 17.1102 13.4077C16.3249 14.1929 15.8924 15.237 15.8924 16.3473C15.8924 17.4577 16.3248 18.5017 17.1102 19.287C17.9207 20.0973 18.9853 20.5025 20.05 20.5025C20.7367 20.5025 21.4229 20.3329 22.0416 19.9957L25.4953 23.4491C25.7453 23.6728 26.0215 23.7873 26.3239 23.7923H30.4576V28.8263H23.1138C22.6062 27.1043 21.0105 25.8432 19.1249 25.8432C16.8336 25.8432 14.9696 27.7071 14.9696 29.9981C14.9696 32.2909 16.8336 34.1563 19.1249 34.1563C21.0109 34.1563 22.6068 32.8938 23.1141 31.17H30.4576V36.2039H26.3239C26.2925 36.2039 26.2656 36.2055 26.2407 36.2079C25.9691 36.2271 25.7027 36.3396 25.495 36.5474L22.0411 40.0036C20.4638 39.144 18.4432 39.3797 17.1101 40.7126C16.324 41.4987 15.8916 42.5435 15.8923 43.6548C15.893 44.7645 16.326 45.8068 17.1101 46.5887C17.9208 47.3993 18.9855 47.8044 20.0503 47.8044C21.1146 47.8044 22.1789 47.3994 22.9886 46.5899C23.7738 45.8068 24.2068 44.7646 24.2075 43.6549C24.208 42.9459 24.0314 42.2644 23.6999 41.6595L26.8095 38.5478H30.4574V52.9186C30.4576 55.5309 28.3321 57.6562 25.7194 57.6562ZM21.864 16.3475C21.864 16.8319 21.6754 17.2873 21.3328 17.6298C20.6255 18.337 19.4748 18.337 18.7675 17.6298C18.4249 17.2873 18.2362 16.8319 18.2362 16.3475C18.2362 15.8632 18.4249 15.4077 18.7675 15.0653C19.4748 14.3582 20.6256 14.3582 21.3328 15.0653C21.6754 15.4077 21.864 15.8631 21.864 16.3475ZM20.9396 29.9984C20.9396 30.9988 20.1255 31.8128 19.1249 31.8128C18.1261 31.8128 17.3134 30.9988 17.3134 29.9984C17.3134 28.9998 18.1261 28.1872 19.1249 28.1872C20.1255 28.1872 20.9396 28.9997 20.9396 29.9984ZM21.864 43.6534C21.8637 44.1363 21.6755 44.5898 21.3328 44.9314C20.6255 45.6386 19.4747 45.6387 18.7663 44.9303C18.4248 44.5898 18.2365 44.1363 18.2362 43.6534C18.2359 43.1688 18.4246 42.7131 18.7675 42.3702C19.4747 41.6632 20.6255 41.6631 21.3326 42.3701C21.3327 42.3702 21.3328 42.3703 21.3329 42.3705L21.333 42.3707C21.6758 42.7136 21.8644 43.1691 21.864 43.6534ZM48.0021 43.6703L45.3 46.3722H32.8014V42.8994H43.3568C44.004 42.8994 44.5287 42.3748 44.5287 41.7275V35.2567C44.5287 34.6095 44.004 34.0848 43.3568 34.0848C42.7096 34.0848 42.1849 34.6095 42.1849 35.2567V40.5557H32.8014V19.4443H42.1849V24.73C42.1849 25.3772 42.7096 25.9018 43.3568 25.9018C44.004 25.9018 44.5287 25.3772 44.5287 24.73V18.2725C44.5287 17.6252 44.004 17.1006 43.3568 17.1006H32.8014V13.6246H45.2996L48.0021 16.3294V43.6703Z" fill="#222A3F"/>
<path d="M43.3555 28.8232C42.7082 28.8232 42.1836 29.3479 42.1836 29.9951V29.9984C42.1836 30.6456 42.7082 31.1686 43.3555 31.1686C44.0027 31.1686 44.5273 30.6424 44.5273 29.9951C44.5273 29.3479 44.0026 28.8232 43.3555 28.8232Z" fill="#222A3F"/>
</g>
<defs>
<clipPath id="clip0">
<rect width="60" height="60" fill="white"/>
</clipPath>
</defs>
</svg>
