<svg width="54" height="54" viewBox="0 0 54 54" fill="none" xmlns="http://www.w3.org/2000/svg">
<g clip-path="url(#clip0)">
<path d="M49 20H50.5L47.5 39.5H6.5L6 35.5C6.33333 35 7 33.6 7 32C7 30 7 29.5 6.5 28C6.1 26.8 5 26.5 4.5 26.5L3.5 20.5L5 20L18.5 29L26.5 15.5H27.5L35.5 29L49 20Z" fill="#A0B3D6" fill-opacity="0.4"/>
<path d="M18.5 29L22.5 22.5L15.5 17L14 17.5L11.5 24L18.5 29Z" fill="#5FA9FF"/>
<path d="M42 24L40 17.5H38.5L31 21.5L35.5 29L42 24Z" fill="#5FA9FF"/>
<ellipse cx="5.19922" cy="31" rx="2.5" ry="4" fill="#5FA9FF"/>
<ellipse cx="27" cy="31" rx="2.5" ry="4" fill="#5FA9FF"/>
<ellipse cx="48.5" cy="31" rx="2.5" ry="4" fill="#5FA9FF"/>
<path d="M50.8359 13.2891C49.0913 13.2891 47.6719 14.7085 47.6719 16.4531C47.6719 17.3637 48.0591 18.1851 48.6768 18.763L42.8648 22.7438L41.0168 17.1998C42.0825 16.6901 42.8203 15.6016 42.8203 14.3438C42.8203 12.5991 41.4009 11.1797 39.6562 11.1797C37.9116 11.1797 36.4922 12.5991 36.4922 14.3438C36.4922 15.2455 36.8721 16.0598 37.4794 16.6366L31.7192 20.4765L28.5761 14.9761C29.5241 14.4291 30.1641 13.4054 30.1641 12.2344C30.1641 10.4897 28.7447 9.07031 27 9.07031C25.2553 9.07031 23.8359 10.4897 23.8359 12.2344C23.8359 13.4054 24.4759 14.4291 25.4239 14.9761L22.2808 20.4765L16.5206 16.6366C17.128 16.0597 17.5078 15.2455 17.5078 14.3438C17.5078 12.5991 16.0884 11.1797 14.3438 11.1797C12.5991 11.1797 11.1797 12.5991 11.1797 14.3438C11.1797 15.6016 11.9175 16.6901 12.9831 17.1998L11.1352 22.7438L5.32322 18.763C5.94095 18.1851 6.32812 17.3637 6.32812 16.4531C6.32812 14.7085 4.90873 13.2891 3.16406 13.2891C1.4194 13.2891 0 14.7085 0 16.4531C0 17.8793 0.948691 19.0876 2.24796 19.4814L3.47119 26.8226C2.6286 27.7662 2.10938 29.3974 2.10938 31.2188C2.10938 34.1177 3.37426 36.3283 5.08191 36.4828L6.34247 44.0483C6.42716 44.5569 6.86718 44.9297 7.38281 44.9297H22.2539C22.8364 44.9297 23.3086 44.4575 23.3086 43.875C23.3086 43.2925 22.8364 42.8203 22.2539 42.8203H8.27634L7.92482 40.7109H46.0751L45.7236 42.8203H31.7461C31.1636 42.8203 30.6914 43.2925 30.6914 43.875C30.6914 44.4575 31.1636 44.9297 31.7461 44.9297H46.6172C47.1328 44.9297 47.5728 44.5569 47.6575 44.0483L48.9181 36.4828C50.6257 36.3283 51.8906 34.1177 51.8906 31.2188C51.8906 29.3974 51.3714 27.7662 50.5288 26.8226L51.752 19.4814C53.0513 19.0876 54 17.8793 54 16.4531C54 14.7085 52.5806 13.2891 50.8359 13.2891ZM39.6562 13.2891C40.2378 13.2891 40.7109 13.7622 40.7109 14.3438C40.7109 14.9253 40.2378 15.3984 39.6562 15.3984C39.0747 15.3984 38.6016 14.9253 38.6016 14.3438C38.6016 13.7622 39.0747 13.2891 39.6562 13.2891ZM39.0923 18.0966L41.0547 23.9837L35.7855 27.5926L32.7682 22.3124L39.0923 18.0966ZM27 11.1797C27.5816 11.1797 28.0547 11.6528 28.0547 12.2344C28.0547 12.8159 27.5816 13.2891 27 13.2891C26.4184 13.2891 25.9453 12.8159 25.9453 12.2344C25.9453 11.6528 26.4184 11.1797 27 11.1797ZM14.3438 13.2891C14.9253 13.2891 15.3984 13.7622 15.3984 14.3438C15.3984 14.9253 14.9253 15.3984 14.3438 15.3984C13.7622 15.3984 13.2891 14.9253 13.2891 14.3438C13.2891 13.7622 13.7622 13.2891 14.3438 13.2891ZM14.9077 18.0966L21.2317 22.3124L18.2145 27.5926L12.9453 23.9836L14.9077 18.0966ZM3.16406 15.3984C3.74562 15.3984 4.21875 15.8716 4.21875 16.4531C4.21875 17.0347 3.74562 17.5078 3.16406 17.5078C2.58251 17.5078 2.10938 17.0347 2.10938 16.4531C2.10938 15.8716 2.58251 15.3984 3.16406 15.3984ZM4.21875 31.2188C4.21875 29.5125 4.78628 28.3648 5.19012 28.0932C5.51306 27.8809 6.32812 29.2346 6.32812 31.2188C6.32812 32.927 5.75923 34.0755 5.35813 34.3434C4.98329 34.592 4.21875 33.0476 4.21875 31.2188ZM7.57339 38.6016L7.07569 35.6149C7.91828 34.6713 8.4375 33.0401 8.4375 31.2188C8.4375 28.3198 7.17261 26.1091 5.46497 25.9547L4.61141 20.8322L17.9664 29.9795C18.4744 30.3274 19.1724 30.1676 19.4781 29.6325L27 16.4695L34.5217 29.6326C34.8285 30.1697 35.5269 30.3264 36.0334 29.9796L49.3884 20.8324L48.5348 25.9548C46.8274 26.1091 45.5625 28.3198 45.5625 31.2188C45.5625 33.0389 46.0811 34.6693 46.9244 35.6143L46.4266 38.6016H7.57339ZM48.7266 34.3828C48.4301 34.3828 47.6719 33.1577 47.6719 31.2188C47.6719 29.3132 48.4173 28.0547 48.7266 28.0547C49.0096 28.0547 49.7812 29.2482 49.7812 31.2188C49.7812 33.1243 49.0358 34.3828 48.7266 34.3828ZM50.8359 17.5078C50.2544 17.5078 49.7812 17.0347 49.7812 16.4531C49.7812 15.8716 50.2544 15.3984 50.8359 15.3984C51.4175 15.3984 51.8906 15.8716 51.8906 16.4531C51.8906 17.0347 51.4175 17.5078 50.8359 17.5078Z" fill="black"/>
<path d="M27 25.9453C25.1962 25.9453 23.8359 28.2124 23.8359 31.2188C23.8359 34.2251 25.1962 36.4922 27 36.4922C28.8038 36.4922 30.1641 34.2251 30.1641 31.2188C30.1641 28.2124 28.8038 25.9453 27 25.9453ZM27 34.3828C26.6806 34.3828 25.9453 33.0998 25.9453 31.2188C25.9453 29.3132 26.6908 28.0547 27 28.0547C27.3194 28.0547 28.0547 29.3377 28.0547 31.2188C28.0547 33.1243 27.3092 34.3828 27 34.3828Z" fill="black"/>
<path d="M27 44.9297C27.5825 44.9297 28.0547 44.4575 28.0547 43.875C28.0547 43.2925 27.5825 42.8203 27 42.8203C26.4175 42.8203 25.9453 43.2925 25.9453 43.875C25.9453 44.4575 26.4175 44.9297 27 44.9297Z" fill="black"/>
</g>
<defs>
<clipPath id="clip0">
<rect width="54" height="54" fill="white"/>
</clipPath>
</defs>
</svg>
