<svg width="62" height="62" viewBox="0 0 62 62" fill="none" xmlns="http://www.w3.org/2000/svg">
<path fill-rule="evenodd" clip-rule="evenodd" d="M33 40.7765C42.6225 39.3291 50 31.0261 50 21C50 16.3768 48.4313 12.1199 45.7972 8.7327C45.4034 8.22634 44.4018 8.52542 43.3919 8.82697C42.4288 9.11454 41.4581 9.40436 41 9C40.5464 8.59969 40.5963 7.51752 40.6462 6.43423C40.6994 5.27826 40.7527 4.12101 40.1945 3.78962C37.2092 2.0175 33.7234 1 30 1C18.9543 1 10 9.9543 10 21C10 25.7945 11.6871 30.195 14.5 33.6402C14.7626 33.9618 15.042 33.7068 15.4243 33.3578C16.0492 32.7874 16.949 31.966 18.5 33C20.4183 34.2789 19.8966 35.7324 19.524 36.7707C19.3139 37.3562 19.1511 37.8097 19.5 38.0253C21.7439 39.4121 24.2824 40.3677 27 40.7765C27.2801 40.8186 27.154 39.4208 26.9721 37.4039C26.8184 35.701 26.625 33.5567 26.6026 31.4653C22.1902 30.0339 19 25.8895 19 21C19 14.9249 23.9249 10 30 10C36.0751 10 41 14.9249 41 21C41 25.9639 37.712 30.1598 33.1952 31.5288C33.2298 33.6528 33.0734 35.821 32.9505 37.5238C32.8095 39.4784 32.7128 40.8197 33 40.7765Z" fill="#A1B3D6" fill-opacity="0.4"/>
<path d="M35 21C35 23.7614 32.7614 24 30 24C27.2386 24 25 23.7614 25 21C25 18.2386 27.2386 16 30 16C32.7614 16 35 18.2386 35 21Z" fill="#B28CFF"/>
<path d="M19.9956 39.0456C21.7907 37.2505 21.7907 34.3291 19.9956 32.534C19.1257 31.6646 17.9697 31.1854 16.7398 31.1854C16.0288 31.1854 15.343 31.3462 14.7228 31.6495C12.536 28.5209 11.3842 24.8597 11.3842 21.0088C11.3842 11.1534 19.0831 2.98902 28.9111 2.4214C29.5795 2.38261 30.0894 1.80978 30.0511 1.14187C30.0123 0.47349 29.4395 -0.0350085 28.7716 0.00188718C17.6627 0.643779 8.96094 9.87103 8.96094 21.0088C8.96094 25.4524 10.319 29.6732 12.8936 33.2582C11.7172 35.0443 11.914 37.4757 13.484 39.0456C14.3539 39.9151 15.5099 40.3942 16.7398 40.3942C17.9697 40.3942 19.1257 39.9151 19.9956 39.0456ZM15.1973 34.2478C15.6225 33.8225 16.1812 33.6097 16.7398 33.6097C17.298 33.6097 17.8566 33.8225 18.2818 34.2478C19.1323 35.0978 19.1323 36.4819 18.2818 37.3319C17.4314 38.1824 16.0478 38.1824 15.1973 37.3319C14.3472 36.4819 14.3472 35.0983 15.1973 34.2478Z" fill="#222A3F"/>
<path d="M48.6857 41.9791C47.9199 41.9791 47.1999 42.1788 46.5751 42.5288C46.0212 40.7725 44.3769 39.4953 42.4399 39.4953C41.2143 39.4953 40.106 40.0066 39.317 40.8269C39.098 40.5998 38.8544 40.3969 38.5909 40.2214C41.3836 38.9712 43.8968 37.1141 45.9303 34.7618C49.2292 30.9445 51.0461 26.06 51.0461 21.0086C51.0461 16.5674 49.688 12.3443 47.1138 8.75877C48.2902 6.97264 48.0935 4.54177 46.523 2.97134C44.7279 1.17622 41.807 1.17622 40.0114 2.97134C38.2163 4.76646 38.2163 7.68785 40.0114 9.48297C40.9092 10.3808 42.088 10.8297 43.2672 10.8297C43.9583 10.8297 44.6484 10.674 45.2828 10.3656C47.4705 13.4951 48.6228 17.1592 48.6228 21.0086C48.6228 29.7737 42.6726 37.1827 34.2826 39.1344V32.6123C39.0876 30.8385 42.3704 26.1939 42.3704 21.0086C42.3704 14.19 36.8228 8.64241 30.0037 8.64241C23.1851 8.64241 17.6374 14.1895 17.6374 21.0086C17.6374 23.6997 18.4875 26.2587 20.0948 28.4081C21.4968 30.2827 23.4367 31.7387 25.6131 32.5693V50.3923L24.0909 47.8952C22.8118 45.7955 20.1416 45.1143 18.0126 46.3432C15.9875 47.5126 15.1976 50.0782 16.2198 52.1945L20.7395 61.3253C20.951 61.7524 21.3805 61.9998 21.8265 61.9998C22.0072 61.9998 22.1903 61.9596 22.3629 61.874C22.9627 61.5769 23.2082 60.8499 22.9116 60.2506L18.3966 51.1302C17.9288 50.161 18.2921 48.9803 19.2244 48.442C20.188 47.8858 21.4429 48.206 22.0219 49.1563L25.79 55.3392C26.0729 55.8027 26.6296 56.0218 27.1523 55.8751C27.675 55.7285 28.0364 55.2517 28.0364 54.7082V26.9077C28.0364 25.8538 28.894 24.9967 29.9479 24.9967C31.0017 24.9967 31.8593 25.8538 31.8593 26.9077V31.7004C31.8589 31.7089 31.8593 31.7174 31.8593 31.7264V49.9198C31.8593 50.5891 32.4014 51.1312 33.0707 51.1312C33.7401 51.1312 34.2826 50.5891 34.2826 49.9198V43.8301C34.2826 42.7762 35.1397 41.9186 36.1936 41.9186C37.2475 41.9186 38.1051 42.7762 38.1051 43.8301V50.3606C38.1051 51.0299 38.6477 51.5725 39.3165 51.5725C39.9859 51.5725 40.5284 51.0299 40.5284 50.3606V43.8301C40.5284 42.7762 41.386 41.9186 42.4399 41.9186C43.4938 41.9186 44.3509 42.7762 44.3509 43.8301V50.4425C44.3509 51.1118 44.8935 51.6543 45.5628 51.6543C46.2321 51.6543 46.7742 51.1118 46.7742 50.4425V46.3139C46.7742 45.26 47.6318 44.4024 48.6857 44.4024C49.7396 44.4024 50.5972 45.26 50.5972 46.3139V60.7875C50.5972 61.4568 51.1393 61.9993 51.8086 61.9993C52.4779 61.9993 53.0205 61.4568 53.0205 60.7875V46.3139C53.0205 43.9237 51.0759 41.9791 48.6857 41.9791ZM41.7252 7.76968C40.8747 6.91919 40.8747 5.53559 41.7252 4.6851C42.1504 4.25985 42.7086 4.04747 43.2672 4.04747C43.8259 4.04747 44.3845 4.25985 44.8097 4.6851C45.6598 5.53559 45.6598 6.91919 44.8097 7.76968C43.9593 8.6197 42.5752 8.6197 41.7252 7.76968ZM20.0607 21.0086C20.0607 15.5258 24.5213 11.0652 30.0041 11.0652C35.4865 11.0652 39.9471 15.5258 39.9471 21.0086C39.9471 24.8694 37.6846 28.358 34.2826 29.9857V26.9077C34.2826 26.2275 34.1246 25.5832 33.8437 25.0095C34.9184 23.9735 35.5536 22.5294 35.5536 21.0086C35.5536 17.9482 33.0641 15.4587 30.0041 15.4587C26.9437 15.4587 24.4542 17.9482 24.4542 21.0086C24.4542 22.4849 25.0554 23.9035 26.0889 24.9376C25.7857 25.5288 25.6131 26.1986 25.6131 26.9077V29.9346C22.239 28.2856 20.0607 24.8661 20.0607 21.0086ZM27.7492 23.1741C27.1906 22.5961 26.8775 21.8303 26.8775 21.0086C26.8775 19.2845 28.28 17.882 30.0037 17.882C31.7278 17.882 33.1304 19.2845 33.1304 21.0086C33.1304 21.8421 32.7917 22.6358 32.2155 23.2158C31.5552 22.8085 30.7785 22.5734 29.9479 22.5734C29.1456 22.5734 28.3945 22.7929 27.7492 23.1741Z" fill="#222A3F"/>
<path d="M34.2934 2.85493C34.6123 2.85493 34.9249 2.72533 35.1501 2.4997C35.3757 2.27454 35.5053 1.96187 35.5053 1.64305C35.5053 1.32471 35.3757 1.01204 35.1501 0.786408C34.9249 0.561249 34.6123 0.431641 34.2934 0.431641C33.9751 0.431641 33.6624 0.561249 33.4373 0.786408C33.2116 1.01204 33.082 1.32471 33.082 1.64305C33.082 1.96187 33.2116 2.27454 33.4373 2.4997C33.6624 2.72533 33.9751 2.85493 34.2934 2.85493Z" fill="#222A3F"/>
</svg>
