<svg width="1440" height="1597" viewBox="0 0 1440 1597" fill="none" xmlns="http://www.w3.org/2000/svg">
<path fill-rule="evenodd" clip-rule="evenodd" d="M-387.031 545.561C-353.96 382.647 -166.525 294.748 58.6329 304.433C206.888 310.81 308.51 387.398 410.115 463.974C516.198 543.926 622.264 623.864 781.37 623.864C932.768 623.864 1021.94 489.285 1117.42 345.184C1230.52 174.494 1352.46 -9.5567 1597.17 0.872796L1702.28 880.808L1587.79 891.998V952.247C1552.13 1020.27 1480.83 1111.58 1329.3 1124.41C1231.05 1132.74 1157.36 1122.68 1087.36 1113.13C964.333 1096.35 852.704 1081.12 639.226 1169.92C565.135 1200.74 514.669 1253.68 459.088 1311.98C336.078 1441.02 188.011 1596.35 -296.669 1596.35V1076.17L-351.378 1081.52L-387.031 545.561Z" fill="url(#paint0_linear)"/>
<defs>
<linearGradient id="paint0_linear" x1="565.575" y1="159.59" x2="229.125" y2="1510.69" gradientUnits="userSpaceOnUse">
<stop stop-color="#2382F2"/>
<stop offset="1" stop-color="#4659FF"/>
</linearGradient>
</defs>
</svg>
